<?xml version="1.0" encoding="UTF-8" standalone="no"?> <svg id="Layer_1" data-name="Layer 1" xmlns="http://www.w3.org/2000/svg" viewBox="0 0 128 128"><defs><style>.cls-1{fill:#1d75b8;}.cls-2{fill:#2d3e50;}</style></defs><title>a</title><path class="cls-1" d="M79.08793,88.62447a2.84248,2.84248,0,0,0-1.32445-1.73784l-10.6932-6.175-.00012-12.367a2.897,2.897,0,0,0-2.86069-2.84412,2.86386,2.86386,0,0,0-2.86057,2.86069V80.71164L50.65317,86.88808A2.87781,2.87781,0,0,0,49.618,90.79239a2.84376,2.84376,0,0,0,2.47888,1.41414A2.89931,2.89931,0,0,0,53.516,91.8276l10.69344-6.17476L74.90579,91.829a2.869,2.869,0,0,0,3.89686-1.03929A2.82746,2.82746,0,0,0,79.08793,88.62447Z"/><path class="cls-2" d="M85.968,45.84373a4.68069,4.68069,0,0,0-2.52252-3.397c-4.38619-2.18719-14.01121-5.41744-14.01121-5.41744v-3.178l.26793-.2022a9.1954,9.1954,0,0,0,3.49142-5.84377l.05392-.3387h.26118a3.55211,3.55211,0,0,0,3.28754-2.21079,3.86819,3.86819,0,0,0,.48361-1.87378,3.559,3.559,0,0,0-.25276-1.3177,1.83787,1.83787,0,0,0-.71277-1.14584l-.888-.53921.22074-.96384c1.60417-6.993-3.81327-13.29171-11.08764-13.46527-.17693-.00337-.35217-.005-.52574-.00169-.17357-.00335-.34881-.00169-.52574.00169-7.27436.17357-12.69181,6.47231-11.08764,13.46527l.22074.96384-.888.53921a1.83787,1.83787,0,0,0-.71277,1.14584,3.559,3.559,0,0,0-.25276,1.3177,3.86819,3.86819,0,0,0,.48361,1.87378,3.55211,3.55211,0,0,0,3.28754,2.21079h.26118l.05392.3387A9.1954,9.1954,0,0,0,58.36516,33.649l.26793.2022v3.178s-9.625,3.23025-14.01121,5.41744a4.68069,4.68069,0,0,0-2.52252,3.397A101.916,101.916,0,0,0,41.21471,57.629H86.85263A101.916,101.916,0,0,0,85.968,45.84373Z"/><path class="cls-2" d="M125.90791,110.26812a4.68069,4.68069,0,0,0-2.52252-3.397c-4.38619-2.18719-14.01121-5.41744-14.01121-5.41744v-3.178l.26793-.2022a9.1954,9.1954,0,0,0,3.49142-5.84377l.05392-.3387h.26118a3.55211,3.55211,0,0,0,3.28754-2.21079,3.86819,3.86819,0,0,0,.48361-1.87378,3.559,3.559,0,0,0-.25276-1.3177,1.83787,1.83787,0,0,0-.71277-1.14584l-.888-.53921.22074-.96384c1.60417-6.993-3.81327-13.29171-11.08764-13.46527-.17693-.00337-.35217-.005-.52574-.00169-.17357-.00335-.34881-.00169-.52574.00169-7.27436.17357-12.69181,6.47231-11.08764,13.46527l.22074.96384-.888.53921a1.83787,1.83787,0,0,0-.71277,1.14584,3.559,3.559,0,0,0-.25276,1.3177,3.86819,3.86819,0,0,0,.48361,1.87378A3.55211,3.55211,0,0,0,94.49856,91.891h.26118l.05392.3387a9.1954,9.1954,0,0,0,3.49142,5.84377l.26793.2022v3.178s-9.625,3.23025-14.01121,5.41744a4.68069,4.68069,0,0,0-2.52252,3.397,101.916,101.916,0,0,0-.88465,11.78526h45.63793A101.916,101.916,0,0,0,125.90791,110.26812Z"/><path class="cls-2" d="M45.96071,110.26812a4.68069,4.68069,0,0,0-2.52252-3.397C39.052,104.68387,29.427,101.45362,29.427,101.45362v-3.178l.26793-.2022a9.1954,9.1954,0,0,0,3.49142-5.84377l.05392-.3387h.26118A3.55211,3.55211,0,0,0,36.789,89.68017a3.86819,3.86819,0,0,0,.48361-1.87378,3.559,3.559,0,0,0-.25276-1.3177,1.83787,1.83787,0,0,0-.71277-1.14584l-.888-.53921.22074-.96384c1.60417-6.993-3.81327-13.29171-11.08764-13.46527-.17693-.00337-.35217-.005-.52574-.00169-.17357-.00335-.34881-.00169-.52574.00169-7.27436.17357-12.69181,6.47231-11.08764,13.46527l.22074.96384-.888.53921a1.83787,1.83787,0,0,0-.71277,1.14584,3.559,3.559,0,0,0-.25276,1.3177,3.86819,3.86819,0,0,0,.48361,1.87378A3.55211,3.55211,0,0,0,14.55136,91.891h.26118l.05392.3387a9.1954,9.1954,0,0,0,3.49142,5.84377l.26793.2022v3.178s-9.625,3.23025-14.01121,5.41744a4.68069,4.68069,0,0,0-2.52252,3.397,101.916,101.916,0,0,0-.88465,11.78526H46.84536A101.916,101.916,0,0,0,45.96071,110.26812Z"/></svg>